<?xml version="1.0" standalone="no"?>
<!DOCTYPE svg PUBLIC "-//W3C//DTD SVG 20010904//EN"
 "http://www.w3.org/TR/2001/REC-SVG-20010904/DTD/svg10.dtd">
<svg version="1.0" xmlns="http://www.w3.org/2000/svg"
 width="219.000000pt" height="219.000000pt" viewBox="0 0 219.000000 219.000000"
 preserveAspectRatio="xMidYMid meet">
<metadata>
Created by potrace 1.14, written by Peter Selinger 2001-2017
</metadata>
<g transform="translate(0.000000,219.000000) scale(0.100000,-0.100000)"
fill="#000000" stroke="none">
<path d="M980 2172 c-327 -47 -566 -269 -630 -582 -40 -197 -15 -371 80 -550
19 -36 37 -69 39 -75 2 -5 8 -14 13 -20 5 -5 30 -39 55 -75 26 -36 107 -139
182 -229 232 -285 317 -430 356 -613 7 -36 23 -36 30 0 15 71 60 188 97 254
65 116 111 180 291 403 269 333 337 470 353 700 7 104 -17 242 -60 338 -136
309 -474 497 -806 449z m257 -360 c82 -26 198 -63 259 -82 l111 -35 -1 -67 c0
-63 -2 -68 -21 -62 -21 7 -236 76 -390 125 -96 31 -121 34 -157 19 -24 -9
-456 -150 -463 -150 -2 0 -3 30 -2 67 2 62 4 68 27 76 14 4 124 41 245 82 121
40 226 74 232 74 7 1 79 -21 160 -47z m-19 -282 c89 -28 147 -118 144 -228 -1
-81 -30 -136 -96 -179 -59 -40 -110 -55 -193 -55 l-63 -1 0 -123 0 -124 -59 0
c-38 0 -60 4 -63 13 -3 10 -2 647 1 691 1 17 40 21 186 20 55 -1 119 -7 143
-14z"/>
<path d="M1028 1432 c-16 -3 -18 -18 -18 -133 0 -96 3 -129 13 -130 105 -11
153 -1 199 40 28 25 32 35 35 92 4 71 -11 99 -63 120 -29 12 -133 19 -166 11z"/>
</g>
</svg>
